<?xml version="1.0" standalone="no"?><!DOCTYPE svg PUBLIC "-//W3C//DTD SVG 1.1//EN" "http://www.w3.org/Graphics/SVG/1.1/DTD/svg11.dtd"><svg t="1604128180034" class="icon" viewBox="0 0 1024 1024" version="1.1" xmlns="http://www.w3.org/2000/svg" p-id="7549" xmlns:xlink="http://www.w3.org/1999/xlink" width="16" height="16"><defs><style type="text/css"></style></defs><path d="M241.1 316.7C302.7 235.6 400 183 509.7 183c147 0 271.8 94.1 318.2 225.2h78.7C857.6 235 698.7 108 509.8 108c-135.8 0-255.9 65.9-331.1 167.1l-81.8-54.5v262.7l225.2-112.6-81-54zM697.4 671l81 54c-61.6 81.1-158.8 133.7-268.6 133.7-147 0-271.7-94.1-318.2-225.2h-78.8c49.1 173.2 208 300.3 396.9 300.3 135.8 0 255.9-65.9 331-167.1l81.8 54.5V558.4L697.4 671z m-75-262.8H397.2c-20.7 0-37.5 16.8-37.5 37.5s16.8 37.5 37.5 37.5h225.2c20.2-0.8 36.1-17.4 36.1-37.5s-16-36.7-36.1-37.5z m0 150.2H397.2c-20.7 0-37.5 16.8-37.5 37.5s16.8 37.5 37.5 37.5h225.2c20.7 0 37.5-16.8 37.5-37.5s-16.8-37.5-37.5-37.5z m0 0" p-id="7550"></path></svg>