<?xml version="1.0" standalone="no"?><!DOCTYPE svg PUBLIC "-//W3C//DTD SVG 1.1//EN" "http://www.w3.org/Graphics/SVG/1.1/DTD/svg11.dtd"><svg t="1606290335383" class="icon" viewBox="0 0 1024 1024" version="1.1" xmlns="http://www.w3.org/2000/svg" p-id="2089" xmlns:xlink="http://www.w3.org/1999/xlink" width="16" height="16"><defs><style type="text/css"></style></defs><path d="M981.333333 276.053333V981.333333a42.666667 42.666667 0 0 1-42.666666 42.666667H85.333333a42.666667 42.666667 0 0 1-42.666666-42.666667V42.666667a42.666667 42.666667 0 0 1 42.666666-42.666667h619.946667z" fill="#B9C9D5" p-id="2090"></path><path d="M705.28 233.386667V0L981.333333 276.053333H747.946667a42.666667 42.666667 0 0 1-42.666667-42.666666z" fill="#D6E4F0" p-id="2091"></path><path d="M357.153827 828.153509m-18.856181-18.856181l-143.306974-143.306974q-18.856181-18.856181 0-37.712362l0 0q18.856181-18.856181 37.712361 0l143.306975 143.306975q18.856181 18.856181 0 37.712361l0 0q-18.856181 18.856181-37.712362 0Z" fill="#FFFFFF" p-id="2092"></path><path d="M176.168321 647.240833m18.856181-18.85618l143.306974-143.306975q18.856181-18.856181 37.712362 0l0 0q18.856181 18.856181 0 37.712362l-143.306974 143.306974q-18.856181 18.856181-37.712362 0l0 0q-18.856181-18.856181 0-37.712361Z" fill="#FFFFFF" p-id="2093"></path><path d="M666.875271 466.282909m18.856181 18.856181l143.306974 143.306974q18.856181 18.856181 0 37.712362l0 0q-18.856181 18.856181-37.712362 0l-143.306974-143.306974q-18.856181-18.856181 0-37.712362l0 0q18.856181-18.856181 37.712362 0Z" fill="#FFFFFF" p-id="2094"></path><path d="M847.807757 647.200761m-18.85618 18.856181l-143.306975 143.306974q-18.856181 18.856181-37.712361 0l0 0q-18.856181-18.856181 0-37.712361l143.306974-143.306975q18.856181-18.856181 37.712362 0l0 0q18.856181 18.856181 0 37.712362Z" fill="#FFFFFF" p-id="2095"></path><path d="M441.216861 805.202833m6.901841-25.758022l74.539885-278.186638q6.901841-25.758022 32.659863-18.856181l0 0q25.758022 6.901841 18.856181 32.659864l-74.539885 278.186638q-6.901841 25.758022-32.659863 18.85618l0 0q-25.758022-6.901841-18.856181-32.659863Z" fill="#FFFFFF" p-id="2096"></path></svg>