<?xml version="1.0" standalone="no"?><!DOCTYPE svg PUBLIC "-//W3C//DTD SVG 1.1//EN" "http://www.w3.org/Graphics/SVG/1.1/DTD/svg11.dtd"><svg t="1603876836606" class="icon" viewBox="0 0 1024 1024" version="1.1" xmlns="http://www.w3.org/2000/svg" p-id="6560" xmlns:xlink="http://www.w3.org/1999/xlink" width="16" height="16"><defs><style type="text/css"></style></defs><path d="M51.2 185.6h358.4c25.6 0 51.2-19.2 51.2-51.2 0-25.6-25.6-51.2-51.2-51.2H51.2c-25.6 6.4-51.2 25.6-51.2 51.2s25.6 51.2 51.2 51.2zM51.2 563.2h153.6v6.4c0 25.6 19.2 51.2 51.2 51.2 25.6 0 51.2-25.6 51.2-51.2V460.8c0-25.6-19.2-51.2-51.2-51.2-25.6 0-51.2 25.6-51.2 51.2v6.4H51.2c-25.6 0-51.2 19.2-51.2 44.8 0 25.6 25.6 51.2 51.2 51.2zM307.2 838.4h-256c-25.6 0-51.2 19.2-51.2 51.2 0 25.6 25.6 51.2 51.2 51.2h256c25.6 0 51.2-19.2 51.2-51.2 0-25.6-25.6-51.2-51.2-51.2zM972.8 467.2h-512c-25.6 0-51.2 19.2-51.2 44.8 0 25.6 25.6 51.2 51.2 51.2h512c25.6 0 51.2-25.6 51.2-51.2s-25.6-44.8-51.2-44.8zM972.8 838.4H563.2V832c0-25.6-19.2-51.2-51.2-51.2-25.6 0-51.2 25.6-51.2 51.2v102.4c0 25.6 19.2 51.2 51.2 51.2 25.6 0 51.2-25.6 51.2-51.2v-6.4h409.6c25.6 0 51.2-19.2 51.2-51.2 0-12.8-25.6-38.4-51.2-38.4zM614.4 236.8c25.6 0 51.2-25.6 51.2-51.2v-6.4h307.2c25.6 0 51.2-19.2 51.2-51.2 0-25.6-25.6-51.2-51.2-51.2h-307.2v6.4c0-25.6-19.2-51.2-51.2-51.2-25.6 0-51.2 25.6-51.2 51.2v102.4c6.4 25.6 25.6 51.2 51.2 51.2z" p-id="6561"></path></svg>