<?xml version="1.0" standalone="no"?><!DOCTYPE svg PUBLIC "-//W3C//DTD SVG 1.1//EN" "http://www.w3.org/Graphics/SVG/1.1/DTD/svg11.dtd"><svg t="1603960696344" class="icon" viewBox="0 0 1024 1024" version="1.1" xmlns="http://www.w3.org/2000/svg" p-id="8047" xmlns:xlink="http://www.w3.org/1999/xlink" width="16" height="16"><defs><style type="text/css"></style></defs><path d="M954.1 485.5C856.7 280.3 709.4 177 512 177c-197.5 0-344.7 103.3-442.1 308.6-7.9 16.6-7.9 36.2 0 52.9C167.3 743.7 314.6 847 512 847c197.5 0 344.7-103.3 442.1-308.6 7.9-16.6 7.9-36 0-52.9zM512 773c-165.8 0-287.1-84.1-372.7-261 85.6-177 207-261 372.7-261s287.1 84.1 372.7 261C799.2 688.9 677.8 773 512 773z m0 0" p-id="8048"></path><path d="M507.9 331.1C408 331.1 327 412.1 327 512s81 180.9 180.9 180.9 180.9-81 180.9-180.9c-0.1-99.9-81-180.9-180.9-180.9z m0 296c-63.6 0-115.1-51.5-115.1-115.1 0-63.6 51.5-115.1 115.1-115.1 63.6 0 115.1 51.5 115.1 115.1 0 63.6-51.5 115.1-115.1 115.1z m0 0" p-id="8049"></path></svg>