<?xml version="1.0" standalone="no"?><!DOCTYPE svg PUBLIC "-//W3C//DTD SVG 1.1//EN" "http://www.w3.org/Graphics/SVG/1.1/DTD/svg11.dtd"><svg t="1608089953683" class="icon" viewBox="0 0 1157 1024" version="1.1" xmlns="http://www.w3.org/2000/svg" p-id="12064" xmlns:xlink="http://www.w3.org/1999/xlink" width="36.15625" height="32"><defs><style type="text/css"></style></defs><path d="M576.321608 0c218.827256 0 396.221106 177.393849 396.221106 396.221106v138.934673c0 187.561809-152.056281 339.61809-339.618091 339.61809h-113.20603c-187.561809 0-339.61809-152.056281-339.61809-339.61809V396.221106c0-218.827256 177.393849-396.221106 396.221105-396.221106z" fill="#4D4132" p-id="12065"></path><path d="M483.698492 813.025126h185.246232v118.351758c0 51.153688-41.469427 92.623116-92.623116 92.623116s-92.623116-41.469427-92.623116-92.623116v-118.351758z" fill="#E6C9AE" p-id="12066"></path><path d="M221.266332 632.924623c0 42.627216 34.558714 77.18593 77.185929 77.18593 42.627216 0 77.18593-34.558714 77.18593-77.18593 0-42.627216-34.558714-77.18593-77.18593-77.18593-42.627216 0-77.18593 34.558714-77.185929 77.18593z" fill="#F2DCC9" p-id="12067"></path><path d="M262.432161 632.929769a36.020101 36.020101 0 1 0 72.040201 0.010291 36.020101 36.020101 0 0 0-72.040201-0.010291z" fill="#E89E80" p-id="12068"></path><path d="M777.005025 632.924623c0 42.627216 34.558714 77.18593 77.18593 77.18593 42.627216 0 77.18593-34.558714 77.185929-77.18593 0-42.627216-34.558714-77.18593-77.185929-77.18593-42.627216 0-77.18593 34.558714-77.18593 77.18593z" fill="#F2DCC9" p-id="12069"></path><path d="M818.170854 632.929769a36.020101 36.020101 0 1 0 72.040201 0.010291 36.020101 36.020101 0 0 0-72.040201-0.010291z" fill="#E89E80" p-id="12070"></path><path d="M571.175879 226.41206h10.291458c147.780181 0 267.577889 119.797709 267.577889 267.57789v180.100502c0 150.620623-122.102995 272.723618-272.723618 272.723618h-5.145729c-147.780181 0-267.577889-119.797709-267.577889-267.577889V493.98995c0-147.780181 119.797709-267.577889 267.577889-267.57789z" fill="#F2DCC9" p-id="12071"></path><path d="M483.698492 761.567839c0 51.153688 41.469427 92.623116 92.623116 92.623116s92.623116-41.469427 92.623116-92.623116H483.698492z" fill="#E89E80" p-id="12072"></path><path d="M369.20603 663.798995a11.577889 11.577889 0 0 1 11.57789 11.577889v38.592965a11.577889 11.577889 0 0 1-11.57789 11.57789h-7.718593a11.577889 11.577889 0 0 1-11.577889-11.57789v-38.592965a11.577889 11.577889 0 0 1 11.577889-11.577889h7.718593z m46.311558 0a11.577889 11.577889 0 0 1 11.577889 11.577889v38.592965a11.577889 11.577889 0 0 1-11.577889 11.57789h-7.718593a11.577889 11.577889 0 0 1-11.577889-11.57789v-38.592965a11.577889 11.577889 0 0 1 11.577889-11.577889h7.718593zM749.98995 663.798995a11.577889 11.577889 0 0 1 11.577889 11.577889v38.592965a11.577889 11.577889 0 0 1-11.577889 11.57789h-7.718593a11.577889 11.577889 0 0 1-11.57789-11.57789v-38.592965a11.577889 11.577889 0 0 1 11.57789-11.577889h7.718593z m46.311558 0a11.577889 11.577889 0 0 1 11.577889 11.577889v38.592965a11.577889 11.577889 0 0 1-11.577889 11.57789h-7.718593a11.577889 11.577889 0 0 1-11.57789-11.57789v-38.592965a11.577889 11.577889 0 0 1 11.57789-11.577889h7.718593z" fill="#F5B196" p-id="12073"></path><path d="M710.110553 524.864322c25.574271 0 46.311558 19.34794 46.311558 43.22412v37.049246c0 23.876181-20.737286 43.224121-46.311558 43.224121s-46.311558-19.34794-46.311558-43.224121V568.088442C663.798995 544.212261 684.536281 524.864322 710.110553 524.864322zM447.678392 524.864322c25.574271 0 46.311558 19.34794 46.311558 43.22412v37.049246c0 23.876181-20.737286 43.224121-46.311558 43.224121s-46.311558-19.34794-46.311558-43.224121V568.088442C401.366834 544.212261 422.104121 524.864322 447.678392 524.864322z" fill="#514141" p-id="12074"></path><path d="M447.678392 555.738693m-20.582915 0a20.582915 20.582915 0 1 0 41.16583 0 20.582915 20.582915 0 1 0-41.16583 0Z" fill="#FFFFFF" p-id="12075"></path><path d="M704.964824 555.738693m-20.582914 0a20.582915 20.582915 0 1 0 41.165829 0 20.582915 20.582915 0 1 0-41.165829 0Z" fill="#FFFFFF" p-id="12076"></path><path d="M195.537688 267.577889m-195.537688 0a195.537688 195.537688 0 1 0 391.075377 0 195.537688 195.537688 0 1 0-391.075377 0Z" fill="#4D4132" p-id="12077"></path><path d="M962.251256 267.577889m-195.537688 0a195.537688 195.537688 0 1 0 391.075377 0 195.537688 195.537688 0 1 0-391.075377 0Z" fill="#4D4132" p-id="12078"></path><path d="M490.418814 521.555618l0.663799 0.45797c0.56603 0.334472 1.106332 0.699819 1.620905 1.101186 6.164583 4.775236 6.308663 12.411497 0.319035 17.052945-5.830111 4.51795-15.32398 4.528241-21.509146 0.118351l-0.499136-0.365346-0.051457 0.041165c-24.483377-17.238191-61.697286-17.29994-84.981708 0.118352l-0.766714 0.581468c-5.989628 4.641447-15.838553 4.528241-22.008281-0.246995-5.99992-4.651739-6.293226-12.015276-0.777005-16.682453l0.463115-0.370492c34.157347-26.469628 89.268101-27.179739 126.40997-2.562573l1.116623 0.756422zM783.725347 521.555618l0.663799 0.45797c0.56603 0.334472 1.106332 0.699819 1.620904 1.101186 6.164583 4.775236 6.308663 12.411497 0.319035 17.052945-5.830111 4.51795-15.32398 4.528241-21.509145 0.118351l-0.499136-0.365346-0.051457 0.041165c-24.483377-17.238191-61.697286-17.29994-84.981709 0.118352l-0.766713 0.581468c-5.989628 4.641447-15.838553 4.528241-22.008282-0.246995-5.99992-4.651739-6.293226-12.015276-0.777005-16.682453l0.463116-0.370492c34.157347-26.469628 89.268101-27.179739 126.40997-2.562573l1.116623 0.756422zM490.418814 428.448804l0.663799 0.56603c0.56603 0.42195 1.106332 0.87992 1.620905 1.384201 6.164583 5.969045 6.308663 15.514372 0.319035 21.313608-5.830111 5.65001-15.32398 5.665447-21.509146 0.154372l-0.499136-0.463116-0.051457 0.051458c-24.483377-21.550312-61.697286-21.627497-84.981708 0.149226l-0.766714 0.725548c-5.989628 5.799236-15.838553 5.660302-22.008281-0.308744-5.99992-5.814673-6.293226-15.015236-0.777005-20.850493l0.463115-0.463115c34.157347-33.087035 89.268101-33.972101 126.40997-3.200643l1.116623 0.941668zM778.579618 428.448804l0.663799 0.56603c0.56603 0.42195 1.106332 0.87992 1.620905 1.384201 6.164583 5.969045 6.308663 15.514372 0.319035 21.313608-5.830111 5.65001-15.32398 5.665447-21.509146 0.154372l-0.499136-0.463116-0.051457 0.051458c-24.483377-21.550312-61.697286-21.627497-84.981708 0.149226l-0.766714 0.725548c-5.989628 5.799236-15.838553 5.660302-22.008281-0.308744-5.99992-5.814673-6.293226-15.015236-0.777005-20.850493l0.463115-0.463115c34.157347-33.087035 89.268101-33.972101 126.40997-3.200643l1.116623 0.941668z" fill="#4D4132" p-id="12079"></path><path d="M307.045628 487.645266c-28.234613-42.879357-40.774754-96.214834-31.157387-150.769849 19.98601-113.344965 128.077186-189.033487 241.427297-169.047477a207.45005 207.45005 0 0 1 111.559397 58.239356c-54.436663 137.596784-177.404141 235.828744-321.119196 261.454473z" fill="#4D4132" p-id="12080"></path><path d="M841.892663 487.645266c28.239759-42.879357 40.779899-96.214834 31.162533-150.769849-19.98601-113.344965-128.077186-189.033487-241.422151-169.047477a207.45005 207.45005 0 0 0-111.559397 58.239356c54.431518 137.596784 177.398995 235.828744 321.119196 261.454473z" fill="#4D4132" p-id="12081"></path></svg>