<?xml version="1.0" standalone="no"?><!DOCTYPE svg PUBLIC "-//W3C//DTD SVG 1.1//EN" "http://www.w3.org/Graphics/SVG/1.1/DTD/svg11.dtd"><svg t="1608089769909" class="icon" viewBox="0 0 1024 1024" version="1.1" xmlns="http://www.w3.org/2000/svg" p-id="7199" xmlns:xlink="http://www.w3.org/1999/xlink" width="32" height="32"><defs><style type="text/css"></style></defs><path d="M517.19797 0c136.082843 0 255.66733 70.671594 324.041421 177.313137 1.07598-0.379452 2.229929-0.582173 3.43066-0.582173h72.771573c45.934457 0 83.167513 37.233056 83.167513 83.167513v694.292792a10.395939 10.395939 0 0 1-15.515939 9.049665L917.441624 924.963086a163.86599 163.86599 0 0 1-83.167512-142.61669v-65.520406C764.922802 817.588629 648.774173 883.654822 517.19797 883.654822c-138.390741 0-259.71135-73.083452-327.472082-182.760609v81.452183a163.86599 163.86599 0 0 1-83.167512 142.61669L38.906802 963.235736A10.395939 10.395939 0 0 1 23.390863 954.196467V259.898477c0-45.934457 37.233056-83.167513 83.167513-83.167513h72.771573a10.395939 10.395939 0 0 1 9.824163 6.980874C256.790091 73.499289 378.412183 0 517.19797 0z" fill="#4D4132" p-id="7200"></path><path d="M418.436548 810.883249h187.126904v119.553299c0 51.673015-41.890437 93.563452-93.563452 93.563452s-93.563452-41.890437-93.563452-93.563452v-119.553299z" fill="#E6C9AE" p-id="7201"></path><path d="M153.340102 602.964467c0 43.05998 34.909563 77.969543 77.969543 77.969543 43.05998 0 77.969543-34.909563 77.969543-77.969543 0-43.05998-34.909563-77.969543-77.969543-77.969543-43.05998 0-77.969543 34.909563-77.969543 77.969543z" fill="#F2DCC9" p-id="7202"></path><path d="M194.923858 602.969665a36.385787 36.385787 0 1 0 72.771573 0.010396 36.385787 36.385787 0 0 0-72.771573-0.010396z" fill="#E89E80" p-id="7203"></path><path d="M714.720812 602.964467c0 43.05998 34.909563 77.969543 77.969543 77.969543 43.05998 0 77.969543-34.909563 77.969543-77.969543 0-43.05998-34.909563-77.969543-77.969543-77.969543-43.05998 0-77.969543 34.909563-77.969543 77.969543z" fill="#F2DCC9" p-id="7204"></path><path d="M756.304569 602.969665a36.385787 36.385787 0 1 0 72.771573 0.010396 36.385787 36.385787 0 0 0-72.771573-0.010396z" fill="#E89E80" p-id="7205"></path><path d="M506.80203 218.314721h10.39594c149.280487 0 270.294416 121.013929 270.294416 270.294416v181.928934c0 152.149766-123.342619 275.492386-275.492386 275.492386h-5.19797c-149.280487 0-270.294416-121.013929-270.294416-270.294416V488.609137c0-149.280487 121.013929-270.294416 270.294416-270.294416z" fill="#F2DCC9" p-id="7206"></path><path d="M418.436548 764.101523c0 51.673015 41.890437 93.563452 93.563452 93.563452s93.563452-41.890437 93.563452-93.563452H418.436548z" fill="#E89E80" p-id="7207"></path><path d="M302.781726 660.142132a11.695431 11.695431 0 0 1 11.695431 11.695431v38.984772a11.695431 11.695431 0 0 1-11.695431 11.695431h-7.796954a11.695431 11.695431 0 0 1-11.695432-11.695431v-38.984772a11.695431 11.695431 0 0 1 11.695432-11.695431h7.796954z m46.781726 0a11.695431 11.695431 0 0 1 11.695431 11.695431v38.984772a11.695431 11.695431 0 0 1-11.695431 11.695431h-7.796955a11.695431 11.695431 0 0 1-11.695431-11.695431v-38.984772a11.695431 11.695431 0 0 1 11.695431-11.695431h7.796955zM687.431472 660.142132a11.695431 11.695431 0 0 1 11.695432 11.695431v38.984772a11.695431 11.695431 0 0 1-11.695432 11.695431h-7.796954a11.695431 11.695431 0 0 1-11.695432-11.695431v-38.984772a11.695431 11.695431 0 0 1 11.695432-11.695431h7.796954z m46.781726 0a11.695431 11.695431 0 0 1 11.695431 11.695431v38.984772a11.695431 11.695431 0 0 1-11.695431 11.695431h-7.796954a11.695431 11.695431 0 0 1-11.695432-11.695431v-38.984772a11.695431 11.695431 0 0 1 11.695432-11.695431h7.796954z" fill="#F5B196" p-id="7208"></path><path d="M425.225096 572.660305l0.670539 0.686132c0.571777 0.509401 1.117563 1.065584 1.63736 1.668548 6.227168 7.240772 6.372711 18.806254 0.322274 25.839106-5.889299 6.845726-15.479553 6.871716-21.727513 0.181929l-0.504203-0.556182-0.051979 0.067573c-24.731939-26.124995-62.323655-26.218558-85.844467 0.176731l-0.774498 0.883655c-6.050437 7.027655-15.99935 6.86132-22.231716-0.379452-6.060832-7.048447-6.357117-18.198091-0.784893-25.272528l0.467817-0.566578c34.504122-40.107533 90.174376-41.178315 127.69332-3.872488l1.127959 1.143554zM721.50936 572.660305l0.670538 0.686132c0.571777 0.509401 1.117563 1.065584 1.637361 1.668548 6.227168 7.240772 6.372711 18.806254 0.322274 25.839106-5.889299 6.845726-15.479553 6.871716-21.727513 0.181929l-0.504203-0.556182-0.051979 0.067573c-24.731939-26.124995-62.323655-26.218558-85.844467 0.176731l-0.774498 0.883655c-6.050437 7.027655-15.99935 6.86132-22.231716-0.379452-6.060832-7.048447-6.357117-18.198091-0.784893-25.272528l0.467817-0.566578c34.504122-40.107533 90.174376-41.178315 127.69332-3.872488l1.127959 1.143554zM425.225096 422.402599l0.670539 0.571777c0.571777 0.426234 1.117563 0.888853 1.63736 1.398253 6.227168 6.029645 6.372711 15.671878 0.322274 21.52999-5.889299 5.707371-15.479553 5.722964-21.727513 0.155939l-0.504203-0.467817-0.051979 0.05198c-24.731939-21.769096-62.323655-21.847066-85.844467 0.150741l-0.774498 0.732914c-6.050437 5.858112-15.99935 5.717766-22.231716-0.311879-6.060832-5.873706-6.357117-15.167675-0.784893-21.062172l0.467817-0.467817c34.504122-33.422944 90.174376-34.316995 127.69332-3.233137l1.127959 0.951228zM716.311391 422.402599l0.670538 0.571777c0.571777 0.426234 1.117563 0.888853 1.63736 1.398253 6.227168 6.029645 6.372711 15.671878 0.322274 21.52999-5.889299 5.707371-15.479553 5.722964-21.727512 0.155939l-0.504203-0.467817-0.05198 0.05198c-24.731939-21.769096-62.323655-21.847066-85.844467 0.150741l-0.774497 0.732914c-6.050437 5.858112-15.99935 5.717766-22.231716-0.311879-6.060832-5.873706-6.357117-15.167675-0.784894-21.062172l0.467818-0.467817c34.504122-33.422944 90.174376-34.316995 127.693319-3.233137l1.12796 0.951228z" fill="#4D4132" p-id="7209"></path><path d="M816.330721 540.183391c30.428914-55.763817 40.819655-122.672081 24.238132-189.169706-35.070701-140.667452-177.53665-226.267614-318.204102-191.196913a261.322721 261.322721 0 0 0-138.614254 87.180345c82.684102 166.309036 247.52731 276.53198 431.25994 293.071919z" fill="#4D4132" p-id="7210"></path><path d="M539.351716 49.682193c119.137462 18.868629 215.549401 93.563452 266.796182 193.187736l-0.161137 0.114355a28.588832 28.588832 0 1 1-51.465096 22.346071c-43.247107-83.739289-123.763655-146.84264-223.351553-164.276629l-5.083615-0.847269-30.808365-4.880894 0.07797-0.514599a26.000244 26.000244 0 0 1 7.973685-50.311147l0.083167-0.509401 35.938762 5.691777z" fill="#807567" p-id="7211"></path><path d="M808.284264 343.06599m-31.187817 0a31.187817 31.187817 0 1 0 62.375634 0 31.187817 31.187817 0 1 0-62.375634 0Z" fill="#807567" p-id="7212"></path></svg>